<svg width="12" height="auto" viewBox="0 0 56 99" fill="none" xmlns="http://www.w3.org/2000/svg">
<path fill-rule="evenodd" clip-rule="evenodd" d="M44 34.65V9.9H48C50.2 9.9 52 7.6725 52 4.95C52 2.2275 50.2 0 48 0H8C5.8 0 4 2.2275 4 4.95C4 7.6725 5.8 9.9 8 9.9H12V34.65C12 41.3018 8.48753 46.9155 3.62697 48.8129C1.71698 49.5584 0 51.1621 0 53.2125V53.2125C0 56.6298 2.77024 59.4 6.1875 59.4H23.88V94.05L27.88 99L31.88 94.05V59.4H49.8125C53.2298 59.4 56 56.6298 56 53.2125V53.2125C56 51.1621 54.283 49.5584 52.373 48.8129C47.5125 46.9155 44 41.3018 44 34.65Z" fill="#000"/>
</svg>